<?xml version="1.0" standalone="no"?>
<!DOCTYPE svg PUBLIC "-//W3C//DTD SVG 20010904//EN"
 "http://www.w3.org/TR/2001/REC-SVG-20010904/DTD/svg10.dtd">
<svg version="1.0" xmlns="http://www.w3.org/2000/svg"
 width="411.000000pt" height="411.000000pt" viewBox="0 0 411.000000 411.000000"
 preserveAspectRatio="xMidYMid meet">

<g transform="translate(0.000000,411.000000) scale(0.100000,-0.100000)"
fill="#000000" stroke="none">
<path d="M4100 2060 l0 -2050 -2052 -3 -2053 -2 2058 -3 2057 -2 0 2055 c0
1130 -2 2055 -5 2055 -3 0 -5 -922 -5 -2050z"/>
<path d="M2042 3798 c-5 -7 -16 -32 -23 -56 -8 -29 -16 -39 -23 -32 -18 18
-26 11 -55 -49 -23 -49 -29 -56 -38 -42 -10 15 -12 14 -31 -3 -12 -10 -31 -43
-43 -72 -13 -31 -28 -53 -34 -50 -23 9 -38 -13 -43 -64 -3 -36 -8 -48 -15 -41
-19 19 -25 12 -37 -38 -8 -33 -16 -48 -25 -45 -14 6 -25 -25 -25 -73 0 -27 -3
-30 -22 -25 -21 5 -21 3 -15 -61 6 -61 5 -65 -13 -62 -30 6 -31 -8 -4 -58 l24
-47 -21 0 c-19 0 -21 -4 -15 -32 13 -66 100 -129 197 -142 56 -8 77 -27 183
-159 60 -75 75 -102 66 -110 -9 -9 -19 -4 -42 23 -17 19 -65 70 -105 113 -62
65 -77 76 -89 66 -12 -10 2 -29 92 -119 100 -100 114 -118 98 -121 -4 -1 -56
47 -116 106 -77 77 -112 105 -119 98 -8 -8 21 -43 100 -124 69 -70 108 -116
102 -122 -6 -6 -52 33 -121 102 -100 99 -130 120 -130 91 0 -5 24 -31 53 -59
120 -114 167 -160 167 -166 0 -20 -52 13 -186 118 -67 53 -82 76 -94 154 -15
87 -85 158 -221 223 -72 34 -89 37 -89 15 0 -8 -2 -15 -4 -15 -2 0 -20 7 -39
15 -46 19 -77 19 -77 0 0 -12 -8 -11 -46 5 -52 23 -74 25 -74 9 0 -7 -8 -9
-22 -4 -13 4 -56 9 -96 10 l-73 3 6 -31 c4 -18 18 -57 31 -87 15 -33 21 -56
15 -58 -18 -6 -13 -22 23 -72 22 -30 33 -55 30 -67 -4 -13 8 -37 30 -66 32
-42 34 -47 16 -47 -34 0 -23 -18 47 -72 57 -45 64 -53 45 -56 -27 -4 -28 -14
-4 -33 43 -36 98 -52 193 -57 109 -5 156 6 209 48 19 15 46 30 58 34 36 12
322 -25 322 -41 0 -10 -35 -13 -160 -13 -136 0 -160 -2 -160 -15 0 -13 24 -15
160 -15 136 0 160 -2 160 -15 0 -13 -24 -15 -160 -15 -136 0 -160 -2 -160 -15
0 -13 24 -15 160 -15 136 0 160 -2 160 -15 0 -13 -24 -15 -160 -15 -142 0
-160 -2 -160 -16 0 -15 16 -16 160 -12 127 4 160 3 160 -8 0 -15 -20 -19 -162
-35 -136 -15 -181 -9 -222 29 -45 42 -87 55 -173 54 -62 0 -85 -6 -132 -29
-40 -20 -57 -35 -59 -50 -2 -15 -10 -23 -22 -23 -11 0 -33 -13 -50 -30 -17
-17 -35 -30 -41 -30 -6 0 -8 -4 -5 -8 3 -5 -10 -16 -29 -25 -19 -9 -35 -21
-35 -26 0 -6 26 -18 57 -27 32 -10 65 -25 73 -35 8 -9 38 -19 65 -23 28 -3 51
-11 53 -16 2 -5 26 -12 53 -16 35 -5 49 -11 45 -19 -5 -15 24 -25 72 -25 26 0
32 -4 30 -17 -2 -14 8 -19 50 -26 34 -6 52 -13 52 -23 0 -16 22 -18 67 -5 20
6 35 5 41 -1 7 -7 25 -5 57 5 25 9 53 13 61 10 10 -3 30 8 53 31 32 31 39 35
45 21 5 -14 8 -14 19 -3 43 43 64 120 68 246 2 49 6 62 18 62 14 0 16 -19 12
-160 -3 -142 -1 -160 13 -160 14 0 16 20 16 160 0 136 2 160 15 160 8 0 15 -6
15 -12 0 -7 1 -78 3 -158 2 -129 4 -145 20 -148 16 -3 17 10 17 157 0 139 2
161 15 161 14 0 16 -21 15 -147 -1 -82 -1 -154 0 -160 0 -7 7 -13 15 -13 13 0
15 24 15 160 0 125 3 160 13 160 10 0 16 -33 25 -121 10 -105 14 -125 37 -155
26 -35 45 -44 45 -22 0 7 17 -4 38 -24 23 -23 47 -36 62 -36 14 0 45 -6 69
-12 32 -10 45 -10 50 -2 5 8 17 9 41 2 47 -13 60 -13 60 4 0 9 17 16 51 21 38
5 53 12 56 26 4 14 14 19 38 19 44 0 65 9 59 24 -4 9 10 15 45 20 28 4 51 11
51 16 0 5 21 12 48 15 65 9 83 15 77 25 -3 4 23 17 57 27 72 21 80 40 29 64
-20 10 -29 18 -21 21 8 2 0 10 -18 17 -18 8 -32 19 -32 27 0 7 -16 16 -35 20
-28 5 -34 10 -30 24 4 13 -7 23 -47 43 -65 31 -113 47 -144 47 -56 0 -128 -24
-172 -58 -26 -19 -60 -38 -76 -42 -29 -5 -303 23 -313 33 -18 18 24 23 167 19
145 -4 160 -3 154 12 -5 14 -27 16 -165 16 -135 0 -159 2 -159 15 0 13 24 15
159 15 132 0 160 3 165 15 5 13 -17 15 -159 15 -142 0 -164 2 -159 15 5 12 32
15 160 15 130 0 154 2 154 15 0 13 -24 15 -160 15 -131 0 -158 2 -154 14 3 9
30 16 77 20 40 4 107 12 149 17 l78 11 72 -43 73 -44 110 0 c116 0 175 16 219
61 19 18 19 19 -3 24 -20 4 -15 11 40 55 65 52 82 75 55 75 -23 0 -21 6 19 60
33 45 34 49 18 59 -10 6 -13 11 -7 11 7 0 26 23 44 50 24 37 29 54 22 63 -8 9
-4 27 14 66 14 29 28 69 31 88 l6 36 -46 -7 c-31 -5 -47 -4 -47 3 0 7 -16 4
-42 -6 -31 -12 -43 -14 -46 -5 -6 18 -43 14 -87 -8 -47 -24 -45 -24 -45 -5 0
19 -37 19 -70 0 -31 -18 -51 -19 -47 -2 4 22 -65 8 -143 -30 -79 -38 -167
-117 -174 -157 -3 -11 -7 -42 -10 -68 -3 -26 -11 -57 -18 -69 -19 -32 -228
-190 -241 -182 -6 4 33 48 96 108 59 56 107 107 107 113 0 28 -32 6 -125 -88
-55 -55 -103 -100 -107 -100 -23 0 3 35 92 124 55 55 100 103 100 108 0 23
-35 -2 -125 -92 -55 -55 -103 -100 -107 -100 -19 0 -2 22 93 118 77 77 100
106 94 119 -5 15 -27 -4 -114 -96 -70 -74 -111 -110 -115 -102 -7 11 46 89 97
146 10 11 25 31 34 45 23 38 59 61 111 69 27 4 68 18 92 32 73 40 142 149 94
149 -9 0 -14 6 -11 13 3 6 12 29 21 49 16 37 16 38 -9 44 -18 4 -24 12 -21 23
5 17 9 66 7 90 -1 8 -8 11 -21 8 -18 -5 -20 0 -20 36 0 47 -17 83 -27 58 -3
-9 -12 9 -20 39 -16 64 -18 67 -38 50 -13 -11 -15 -7 -15 28 0 55 -8 72 -34
72 -16 0 -25 10 -35 38 -7 20 -25 52 -38 70 -24 32 -26 33 -44 16 -18 -16 -19
-16 -19 0 0 20 -36 92 -50 101 -6 4 -17 2 -24 -4 -11 -9 -15 -5 -20 22 -6 34
-31 77 -45 77 -5 0 -13 -6 -19 -12z"/>
<path d="M1516 1540 c-190 -74 -222 -331 -58 -457 54 -41 111 -57 182 -50 95
8 165 57 211 146 18 35 23 61 23 121 0 68 -4 82 -30 126 -73 118 -202 163
-328 114z m182 -133 c37 -34 52 -71 52 -126 0 -44 -4 -54 -40 -93 -39 -41 -44
-43 -97 -43 -53 0 -57 2 -93 43 -48 53 -56 95 -32 158 23 64 76 97 141 89 27
-3 55 -14 69 -28z"/>
<path d="M870 1293 l0 -253 109 0 c73 0 125 5 159 16 180 58 232 284 96 417
-52 51 -112 67 -247 70 l-117 2 0 -252z m230 129 c113 -56 105 -222 -14 -267
-80 -31 -81 -30 -84 138 l-3 147 33 0 c18 -1 49 -9 68 -18z"/>
<path d="M1910 1293 l0 -253 143 0 144 0 12 43 c7 23 15 50 17 60 5 15 -4 17
-95 17 l-101 0 0 193 0 192 -60 0 -60 0 0 -252z"/>
<path d="M2270 1296 l0 -256 65 0 65 0 0 117 0 117 50 -49 50 -49 47 48 48 47
3 -116 3 -116 65 3 66 3 0 248 c1 136 -1 249 -3 252 -2 2 -45 -30 -94 -71
-145 -121 -137 -117 -166 -91 -44 39 -163 142 -181 156 -17 13 -18 0 -18 -243z"/>
<path d="M3018 1503 c-14 -27 -41 -77 -60 -113 -20 -36 -49 -90 -65 -120 -16
-30 -51 -94 -77 -142 l-48 -88 65 0 66 0 23 43 23 42 97 3 97 3 26 -46 27 -45
65 0 65 0 -35 63 c-37 65 -179 331 -205 382 -35 69 -37 70 -64 18z m30 -281
c-22 -2 -42 -1 -44 1 -3 2 6 23 18 46 l22 42 22 -43 22 -43 -40 -3z"/>
<path d="M1060 880 c0 -35 4 -60 11 -60 6 0 9 23 8 60 -1 33 -6 60 -11 60 -4
0 -8 -27 -8 -60z"/>
<path d="M1802 880 c0 -36 2 -57 5 -47 6 23 19 22 37 -5 9 -12 16 -17 16 -11
0 6 -7 19 -16 28 -15 15 -15 17 1 35 10 11 13 20 7 20 -6 0 -14 -4 -17 -10 -9
-14 -28 -12 -22 3 2 6 1 21 -4 32 -5 13 -7 -3 -7 -45z"/>
<path d="M2070 931 c0 -5 -7 -17 -16 -25 -8 -9 -11 -16 -5 -16 6 0 11 -16 11
-35 0 -19 5 -35 10 -35 6 0 8 15 6 34 -3 21 0 37 7 40 9 3 8 5 0 5 -21 2 -15
21 10 31 l22 9 -22 0 c-13 1 -23 -3 -23 -8z"/>
<path d="M2763 920 c-6 -22 -38 -27 -46 -7 -4 9 -8 8 -16 -3 -7 -10 -7 -16 0
-21 6 -3 10 -9 10 -13 -6 -40 1 -56 22 -55 16 1 18 2 5 6 -27 7 -25 63 2 63
16 0 20 -7 20 -35 0 -19 4 -35 8 -35 5 0 8 16 7 35 -2 26 2 35 14 36 13 0 12
2 -3 8 -17 7 -17 8 -2 24 16 16 16 17 1 17 -9 0 -19 -9 -22 -20z"/>
<path d="M852 918 c-16 -16 -16 -70 0 -86 19 -19 66 -15 78 7 14 26 13 64 -2
79 -15 15 -61 15 -76 0z m62 -14 c19 -18 19 -16 6 -48 -12 -33 -47 -34 -61 -2
-8 17 -8 29 0 45 14 25 34 27 55 5z"/>
<path d="M1380 922 c0 -5 7 -17 15 -28 8 -10 15 -35 15 -54 0 -25 3 -31 9 -20
6 8 8 17 5 21 -2 4 3 24 12 44 8 20 13 39 10 42 -2 2 -7 -5 -11 -16 -8 -27
-25 -27 -32 -1 -5 19 -23 29 -23 12z"/>
<path d="M1926 915 c-6 -16 26 -55 44 -55 5 0 7 -7 3 -16 -4 -11 -13 -14 -32
-9 -20 5 -23 4 -15 -5 19 -19 59 -8 62 17 2 16 -4 26 -22 35 -31 14 -36 43 -6
35 11 -3 20 -1 20 4 0 15 -48 10 -54 -6z"/>
<path d="M2268 923 c7 -3 16 -2 19 1 4 3 -2 6 -13 5 -11 0 -14 -3 -6 -6z"/>
<path d="M2481 873 c1 -32 4 -48 6 -35 3 13 12 22 23 22 23 0 42 32 34 54 -4
10 -18 16 -35 16 -29 0 -29 0 -28 -57z m44 22 c0 -11 -8 -21 -17 -23 -14 -3
-18 3 -18 23 0 20 4 26 18 23 9 -2 17 -12 17 -23z"/>
<path d="M2570 875 c0 -30 4 -55 10 -55 5 0 9 24 8 55 -1 30 -6 55 -10 55 -4
0 -8 -25 -8 -55z"/>
<path d="M2019 898 c0 -7 -2 -20 -3 -28 -2 -8 0 -24 5 -35 5 -14 8 -7 8 28 1
26 -1 47 -4 47 -3 0 -5 -6 -6 -12z"/>
<path d="M969 895 c-2 -9 -1 -44 1 -62 2 -10 5 -2 9 17 4 22 12 35 21 35 9 0
17 -13 21 -35 l6 -35 2 43 c1 40 0 42 -29 42 -16 0 -30 -2 -31 -5z"/>
<path d="M1113 860 c0 -25 2 -35 4 -22 2 12 2 32 0 45 -2 12 -4 2 -4 -23z"/>
<path d="M1151 858 c2 -34 3 -37 6 -13 4 28 18 44 36 45 4 0 7 -16 7 -35 0
-19 5 -35 11 -35 6 0 9 16 7 38 -3 34 -6 37 -35 40 -33 3 -33 3 -32 -40z"/>
<path d="M1251 878 c-12 -31 4 -58 34 -58 14 0 25 4 25 8 0 5 -10 8 -21 8 -12
-1 -24 5 -26 12 -3 8 6 12 27 12 25 0 31 4 28 18 -2 10 -14 18 -31 20 -21 3
-29 -2 -36 -20z m44 2 c3 -5 -1 -10 -9 -10 -9 0 -16 5 -16 10 0 6 4 10 9 10 6
0 13 -4 16 -10z"/>
<path d="M1466 884 c-13 -33 -6 -54 20 -60 14 -4 30 -2 35 3 7 7 2 9 -15 6
-19 -4 -26 -1 -26 11 0 11 9 16 30 16 28 0 30 2 20 20 -13 24 -55 27 -64 4z
m49 -4 c3 -5 -3 -10 -15 -10 -12 0 -18 5 -15 10 3 6 10 10 15 10 5 0 12 -4 15
-10z"/>
<path d="M1558 893 c-2 -5 -1 -24 3 -43 5 -27 7 -30 8 -10 3 59 40 65 42 7 1
-34 3 -30 13 16 9 37 29 29 37 -14 6 -34 6 -34 8 9 l1 42 -54 0 c-30 0 -56 -3
-58 -7z"/>
<path d="M1710 892 c0 -5 10 -8 21 -8 12 1 24 -5 26 -11 3 -9 -6 -13 -27 -13
-25 0 -31 -4 -28 -17 2 -13 13 -18 33 -18 28 0 30 3 30 35 0 31 -3 35 -27 38
-16 2 -28 -1 -28 -6z m45 -52 c-3 -5 -12 -10 -20 -10 -8 0 -17 5 -20 10 -4 6
5 10 20 10 15 0 24 -4 20 -10z"/>
<path d="M2120 892 c0 -6 9 -8 20 -5 11 3 20 0 20 -6 0 -6 -12 -11 -26 -11
-21 0 -25 -4 -22 -22 2 -17 11 -24 31 -26 27 -3 28 -2 25 35 -2 31 -7 39 -25
41 -13 2 -23 -1 -23 -6z m34 -47 c-7 -17 -20 -20 -28 -6 -7 10 3 21 20 21 8 0
11 -6 8 -15z"/>
<path d="M2200 860 c0 -22 5 -40 10 -40 6 0 10 15 10 34 0 24 5 36 18 39 10 3
6 5 -10 6 -26 1 -28 -2 -28 -39z"/>
<path d="M2273 860 c0 -25 2 -35 4 -22 2 12 2 32 0 45 -2 12 -4 2 -4 -23z"/>
<path d="M2314 888 c-4 -6 2 -19 14 -29 27 -22 28 -33 2 -26 -11 3 -20 1 -20
-4 0 -5 5 -9 11 -9 6 0 9 -7 5 -15 -3 -9 0 -15 8 -15 14 0 30 55 20 71 -3 5
-12 9 -20 9 -8 0 -13 4 -9 10 3 5 12 7 20 3 8 -3 15 0 15 6 0 15 -37 14 -46
-1z"/>
<path d="M2393 860 c0 -25 2 -35 4 -22 2 12 2 32 0 45 -2 12 -4 2 -4 -23z"/>
<path d="M2615 890 c-4 -7 2 -9 19 -4 16 4 26 2 26 -4 0 -6 -10 -12 -22 -14
-15 -2 -23 -10 -23 -23 0 -15 7 -20 29 -20 26 0 29 4 30 32 1 32 -9 43 -39 43
-8 0 -17 -5 -20 -10z m43 -42 c-6 -18 -25 -20 -31 -3 -5 10 0 15 14 15 12 0
19 -5 17 -12z"/>
<path d="M2814 886 c-12 -32 0 -61 28 -64 23 -3 30 2 38 24 7 19 7 30 -1 40
-15 18 -58 18 -65 0z m51 -26 c0 -29 -32 -41 -41 -16 -9 24 4 48 23 44 12 -2
18 -12 18 -28z"/>
<path d="M2911 858 c0 -32 2 -38 8 -23 5 11 7 23 5 27 -3 4 6 14 18 22 l22 16
-27 0 c-25 0 -27 -3 -26 -42z"/>
<path d="M2981 857 l1 -42 8 33 c4 18 10 35 13 39 12 11 27 -10 28 -40 l2 -32
6 35 c4 22 12 36 24 38 14 3 17 -4 17 -35 0 -26 3 -33 9 -24 5 7 7 21 6 30 -2
9 -4 21 -4 27 -1 8 -22 12 -56 13 l-55 0 1 -42z"/>
<path d="M3125 890 c-4 -7 2 -9 19 -4 16 4 26 2 26 -4 0 -6 -10 -12 -22 -14
-15 -2 -24 -11 -26 -25 -3 -20 1 -23 27 -23 29 0 31 2 31 40 0 36 -3 40 -24
40 -14 0 -28 -5 -31 -10z m45 -40 c0 -12 -28 -25 -36 -17 -9 9 6 27 22 27 8 0
14 -5 14 -10z"/>
<path d="M3210 881 c0 -11 9 -23 20 -26 30 -10 25 -28 -6 -21 -17 5 -23 3 -19
-4 9 -15 45 -12 51 5 4 9 -4 24 -17 36 l-24 21 23 -5 c12 -3 22 -1 22 4 0 5
-11 9 -25 9 -18 0 -25 -5 -25 -19z"/>
<path d="M3293 855 c0 -27 2 -38 4 -22 2 15 2 37 0 50 -2 12 -4 0 -4 -28z"/>
</g>
</svg>
